M48
; DRILL file {KiCad 9.0.2} date 2025-07-22T21:11:38+0200
; FORMAT={-:-/ absolute / metric / decimal}
; #@! TF.CreationDate,2025-07-22T21:11:39+02:00
; #@! TF.GenerationSoftware,Kicad,Pcbnew,9.0.2
; #@! TF.FileFunction,Plated,1,2,PTH
FMAT,2
METRIC
; #@! TA.AperFunction,Plated,PTH,ViaDrill
T1C0.300
; #@! TA.AperFunction,Plated,PTH,ViaDrill
T2C0.500
; #@! TA.AperFunction,Plated,PTH,ComponentDrill
T3C1.000
; #@! TA.AperFunction,Plated,PTH,ComponentDrill
T4C1.300
; #@! TA.AperFunction,Plated,PTH,ComponentDrill
T5C1.320
%
G90
G05
T1
X64.7Y-74.9
X64.7Y-77.7
X64.7Y-80.0
X64.7Y-82.4
X64.8Y-97.1
X64.8Y-99.9
X64.8Y-102.2
X64.8Y-104.6
X65.0Y-110.1
X65.0Y-112.9
X65.0Y-115.2
X65.0Y-117.6
X65.6Y-36.7
X65.6Y-39.5
X65.6Y-41.8
X65.6Y-44.2
X65.7Y-51.9
X65.7Y-54.7
X65.7Y-57.0
X65.7Y-59.4
X67.5Y-89.3
X67.6Y-113.3
X67.8Y-66.2
X69.0Y-91.3
X69.1Y-115.3
X69.3Y-68.2
X70.5Y-89.3
X70.6Y-113.3
X70.8Y-66.2
X71.2Y-33.0
X72.0Y-91.2
X72.1Y-115.2
X72.3Y-68.1
X73.2Y-89.3
X73.3Y-113.3
X73.5Y-66.2
X73.6Y-33.0
X75.1Y-122.9
X75.9Y-33.0
X76.0Y-66.9
X77.2Y-65.5
X77.5Y-122.9
X78.4Y-33.0
X79.8Y-122.9
X80.5Y-105.2
X80.8Y-33.0
X81.415Y-93.27
X82.3Y-122.9
X83.1Y-33.0
X84.6Y-66.6
X84.7Y-84.4
X84.7Y-122.9
X85.2Y-38.7
X85.2Y-39.8
X85.5Y-33.0
X86.0Y-52.5
X86.1Y-68.6
X86.2Y-86.4
X87.0Y-122.9
X87.5Y-54.5
X87.6Y-66.6
X87.7Y-84.4
X87.9Y-33.0
X88.3Y-103.3
X89.0Y-52.5
X89.1Y-68.5
X89.2Y-86.3
X89.3Y-46.1
X89.3Y-47.1
X89.4Y-122.9
X90.2Y-33.0
X90.3Y-66.6
X90.4Y-84.4
X90.5Y-54.4
X90.5Y-103.3
X91.7Y-52.5
X91.8Y-122.9
X92.7Y-33.0
X93.5Y-89.2
X93.6Y-56.25
X93.95Y-64.35
X94.1Y-122.9
X94.165Y-105.145
X95.1Y-33.0
X96.6Y-122.9
X97.4Y-33.0
X99.0Y-122.9
X99.7Y-78.6
X99.8Y-81.7
X99.8Y-85.5
X100.2Y-33.0
X100.4Y-100.5
X100.4Y-105.1
X100.4Y-108.1
X100.6Y-54.9
X100.7Y-70.15
X100.7Y-91.95
X100.8Y-114.55
X100.9Y-49.35
X101.3Y-122.9
X102.6Y-33.0
X104.1Y-122.9
X104.9Y-33.0
X105.6Y-65.3
X105.6Y-87.1
X105.7Y-109.7
X105.725Y-70.225
X105.725Y-92.025
X105.8Y-44.5
X105.825Y-114.625
X105.925Y-49.425
X106.5Y-122.9
X107.4Y-33.0
X107.7Y-78.2
X107.7Y-100.3
X107.825Y-70.825
X107.825Y-92.625
X107.925Y-115.225
X108.025Y-50.025
X108.3Y-56.6
X108.8Y-122.9
X109.8Y-33.0
X110.3Y-65.6
X110.3Y-69.8
X110.3Y-87.1
X110.3Y-91.6
X110.4Y-110.0
X110.5Y-44.7
X110.6Y-49.1
X110.6Y-114.5
X110.9Y-78.2
X111.0Y-100.3
X111.1Y-56.6
X111.3Y-122.9
X112.1Y-33.0
X113.7Y-122.9
X115.1Y-33.0
X116.0Y-122.9
X116.587Y-94.934
X117.5Y-33.0
X118.3Y-73.1
X118.3Y-77.2
X118.3Y-80.7
X118.5Y-100.3
X119.0Y-122.9
X119.8Y-33.0
X120.0Y-116.6
X121.4Y-122.9
X121.6Y-41.4
X121.6Y-45.2
X121.8Y-111.5
X122.3Y-33.0
X123.2Y-100.3
X123.7Y-122.9
X124.7Y-33.0
X125.612Y-70.287
X125.625Y-65.525
X126.2Y-57.5
X126.2Y-122.9
X126.7Y-72.5
X127.0Y-33.0
X127.0Y-106.9
X128.4Y-87.1
X128.4Y-87.1
X128.6Y-122.9
X129.2Y-80.1
X129.2Y-84.1
X129.3Y-70.6
X129.6Y-87.7
X129.7Y-33.0
X129.9Y-106.9
X130.4Y-89.1
X130.9Y-122.9
X132.1Y-33.0
X132.3Y-66.5
X133.5Y-55.4
X133.6Y-122.9
X134.0Y-75.95
X134.0Y-76.95
X134.0Y-77.95
X134.0Y-79.45
X134.0Y-80.45
X134.0Y-81.45
X134.4Y-33.0
X134.9Y-78.6
X135.475Y-83.1
X135.5Y-86.1
X135.7Y-72.8
X135.8Y-78.6
X135.9Y-57.5
X136.0Y-122.9
X136.15Y-84.95
X136.7Y-78.6
X136.9Y-33.0
X137.1Y-72.8
X137.6Y-78.6
X137.75Y-70.0
X138.1Y-85.0
X138.3Y-72.8
X138.3Y-122.9
X138.4Y-66.2
X138.5Y-78.6
X138.8Y-108.6
X139.3Y-33.0
X139.4Y-78.6
X139.5Y-89.0
X139.9Y-94.1
X140.25Y-75.95
X140.25Y-76.95
X140.25Y-77.95
X140.25Y-79.45
X140.25Y-80.45
X140.25Y-81.45
X140.8Y-122.9
X141.6Y-33.0
X142.3Y-61.2
X142.3Y-64.7
X143.2Y-122.9
X145.5Y-122.9
X146.8Y-36.3
X146.8Y-38.6
X146.8Y-41.0
X146.8Y-44.0
X146.8Y-46.3
X146.8Y-48.7
X146.8Y-51.2
X146.8Y-53.5
X146.8Y-55.9
X146.8Y-58.7
X146.8Y-61.0
X146.8Y-63.4
X146.8Y-65.9
X146.8Y-68.2
X146.8Y-70.6
X146.8Y-73.0
X146.8Y-75.3
X146.8Y-77.7
X146.9Y-79.9
X146.9Y-82.2
X146.9Y-84.6
X146.9Y-87.6
X146.9Y-89.9
X146.9Y-92.3
X146.9Y-94.8
X146.9Y-97.1
X146.9Y-99.5
X146.9Y-102.3
X146.9Y-104.6
X146.9Y-107.0
X146.9Y-109.5
X146.9Y-111.8
X146.9Y-114.2
X146.9Y-116.6
X146.9Y-118.9
X146.9Y-121.3
T2
X96.6Y-66.675
X96.675Y-88.475
X96.675Y-110.925
X96.85Y-45.8
X97.725Y-66.675
X97.8Y-88.475
X97.8Y-110.925
X97.975Y-45.8
X114.8Y-64.7
X116.4Y-71.1
X117.2Y-87.5
X118.4Y-55.3
X119.2Y-90.7
X120.7Y-104.1
X137.4Y-94.7
X141.6Y-50.3
X143.2Y-54.1
X144.6Y-104.1
T3
X67.46Y-49.36
X67.46Y-51.9
X67.46Y-54.44
X67.46Y-56.98
X67.46Y-59.52
X67.46Y-62.06
X67.46Y-72.22
X67.46Y-74.76
X67.46Y-77.3
X67.46Y-79.84
X67.46Y-82.38
X67.46Y-84.92
X67.46Y-95.08
X67.46Y-97.62
X67.46Y-100.16
X67.46Y-102.7
X67.46Y-105.24
X67.46Y-107.78
X70.0Y-49.36
X70.0Y-51.9
X70.0Y-54.44
X70.0Y-56.98
X70.0Y-59.52
X70.0Y-62.06
X70.0Y-72.22
X70.0Y-74.76
X70.0Y-77.3
X70.0Y-79.84
X70.0Y-82.38
X70.0Y-84.92
X70.0Y-95.08
X70.0Y-97.62
X70.0Y-100.16
X70.0Y-102.7
X70.0Y-105.24
X70.0Y-107.78
X77.5Y-72.525
X77.5Y-75.065
X77.5Y-77.605
X77.5Y-80.145
X77.5Y-82.685
X77.5Y-85.225
X77.5Y-87.765
X77.5Y-90.305
X91.6Y-41.425
X91.6Y-43.965
T4
X126.3Y-40.9
X126.3Y-115.5
X131.3Y-40.9
X131.3Y-115.5
X136.3Y-40.9
X136.3Y-115.5
X141.3Y-40.9
X141.3Y-115.5
T5
X79.235Y-43.5
X84.235Y-43.5
M30
