%TF.GenerationSoftware,KiCad,Pcbnew,9.0.2*%
%TF.CreationDate,2025-07-22T21:11:49+02:00*%
%TF.ProjectId,rgbw_pmod,72676277-5f70-46d6-9f64-2e6b69636164,rev?*%
%TF.SameCoordinates,Original*%
%TF.FileFunction,Paste,Top*%
%TF.FilePolarity,Positive*%
%FSLAX46Y46*%
G04 Gerber Fmt 4.6, Leading zero omitted, Abs format (unit mm)*
G04 Created by KiCad (PCBNEW 9.0.2) date 2025-07-22 21:11:49*
%MOMM*%
%LPD*%
G01*
G04 APERTURE LIST*
G04 Aperture macros list*
%AMRoundRect*
0 Rectangle with rounded corners*
0 $1 Rounding radius*
0 $2 $3 $4 $5 $6 $7 $8 $9 X,Y pos of 4 corners*
0 Add a 4 corners polygon primitive as box body*
4,1,4,$2,$3,$4,$5,$6,$7,$8,$9,$2,$3,0*
0 Add four circle primitives for the rounded corners*
1,1,$1+$1,$2,$3*
1,1,$1+$1,$4,$5*
1,1,$1+$1,$6,$7*
1,1,$1+$1,$8,$9*
0 Add four rect primitives between the rounded corners*
20,1,$1+$1,$2,$3,$4,$5,0*
20,1,$1+$1,$4,$5,$6,$7,0*
20,1,$1+$1,$6,$7,$8,$9,0*
20,1,$1+$1,$8,$9,$2,$3,0*%
G04 Aperture macros list end*
%ADD10RoundRect,0.237500X-0.250000X-0.237500X0.250000X-0.237500X0.250000X0.237500X-0.250000X0.237500X0*%
%ADD11RoundRect,0.250000X-0.475000X0.337500X-0.475000X-0.337500X0.475000X-0.337500X0.475000X0.337500X0*%
%ADD12R,0.600000X1.250000*%
%ADD13RoundRect,0.237500X-0.300000X-0.237500X0.300000X-0.237500X0.300000X0.237500X-0.300000X0.237500X0*%
%ADD14RoundRect,0.237500X0.237500X-0.250000X0.237500X0.250000X-0.237500X0.250000X-0.237500X-0.250000X0*%
%ADD15RoundRect,0.237500X-0.237500X0.300000X-0.237500X-0.300000X0.237500X-0.300000X0.237500X0.300000X0*%
%ADD16R,2.209800X6.299200*%
%ADD17R,1.320800X0.558800*%
%ADD18RoundRect,0.237500X-0.237500X0.250000X-0.237500X-0.250000X0.237500X-0.250000X0.237500X0.250000X0*%
%ADD19RoundRect,0.237500X0.300000X0.237500X-0.300000X0.237500X-0.300000X-0.237500X0.300000X-0.237500X0*%
%ADD20RoundRect,0.150000X0.150000X-0.512500X0.150000X0.512500X-0.150000X0.512500X-0.150000X-0.512500X0*%
%ADD21RoundRect,0.237500X0.250000X0.237500X-0.250000X0.237500X-0.250000X-0.237500X0.250000X-0.237500X0*%
%ADD22R,0.670000X1.100000*%
%ADD23R,0.980000X1.100000*%
%ADD24R,4.480000X1.100000*%
G04 APERTURE END LIST*
D10*
%TO.C,R9*%
X124175000Y-85300000D03*
X126000000Y-85300000D03*
%TD*%
D11*
%TO.C,C20*%
X113000000Y-88662500D03*
X113000000Y-90737500D03*
%TD*%
D12*
%TO.C,IC1*%
X108950000Y-45950000D03*
X108000000Y-45950000D03*
X107050000Y-45950000D03*
X107050000Y-48450000D03*
X108000000Y-48450000D03*
X108950000Y-48450000D03*
%TD*%
D10*
%TO.C,R12*%
X123800000Y-66800000D03*
X125625000Y-66800000D03*
%TD*%
D13*
%TO.C,C18*%
X101537500Y-71500000D03*
X103262500Y-71500000D03*
%TD*%
%TO.C,C23*%
X101537500Y-93300000D03*
X103262500Y-93300000D03*
%TD*%
D10*
%TO.C,R5*%
X123787500Y-68900000D03*
X125612500Y-68900000D03*
%TD*%
D14*
%TO.C,R16*%
X99325000Y-49212500D03*
X99325000Y-47387500D03*
%TD*%
D10*
%TO.C,R4*%
X124087500Y-102700000D03*
X125912500Y-102700000D03*
%TD*%
D15*
%TO.C,C17*%
X104200000Y-66937500D03*
X104200000Y-68662500D03*
%TD*%
D10*
%TO.C,R6*%
X83182700Y-91209800D03*
X85007700Y-91209800D03*
%TD*%
D16*
%TO.C,L1*%
X107842600Y-40200000D03*
X111957400Y-40200000D03*
%TD*%
D11*
%TO.C,C26*%
X101900000Y-111225000D03*
X101900000Y-113300000D03*
%TD*%
D12*
%TO.C,IC2*%
X108750000Y-66750000D03*
X107800000Y-66750000D03*
X106850000Y-66750000D03*
X106850000Y-69250000D03*
X107800000Y-69250000D03*
X108750000Y-69250000D03*
%TD*%
D17*
%TO.C,U4*%
X91740200Y-109330600D03*
X91740200Y-110270400D03*
X91740200Y-111210200D03*
X94280200Y-111210200D03*
X94280200Y-109330600D03*
%TD*%
D15*
%TO.C,C6*%
X87365200Y-93670400D03*
X87365200Y-95395400D03*
%TD*%
%TO.C,C4*%
X87115200Y-77845400D03*
X87115200Y-79570400D03*
%TD*%
D18*
%TO.C,R25*%
X105400000Y-115887500D03*
X105400000Y-117712500D03*
%TD*%
D11*
%TO.C,C25*%
X113100000Y-111262500D03*
X113100000Y-113337500D03*
%TD*%
D14*
%TO.C,R23*%
X99100000Y-95237500D03*
X99100000Y-93412500D03*
%TD*%
D10*
%TO.C,R1*%
X83187500Y-57700000D03*
X85012500Y-57700000D03*
%TD*%
D15*
%TO.C,C8*%
X87680200Y-109210200D03*
X87680200Y-110935200D03*
%TD*%
D13*
%TO.C,C13*%
X101737500Y-50700000D03*
X103462500Y-50700000D03*
%TD*%
D19*
%TO.C,C19*%
X108862500Y-94300000D03*
X107137500Y-94300000D03*
%TD*%
D15*
%TO.C,C12*%
X104400000Y-46137500D03*
X104400000Y-47862500D03*
%TD*%
D11*
%TO.C,C15*%
X113000000Y-66862500D03*
X113000000Y-68937500D03*
%TD*%
D10*
%TO.C,R7*%
X83567700Y-106672700D03*
X85392700Y-106672700D03*
%TD*%
D16*
%TO.C,L4*%
X107742600Y-105400000D03*
X111857400Y-105400000D03*
%TD*%
D12*
%TO.C,IC3*%
X108750000Y-88550000D03*
X107800000Y-88550000D03*
X106850000Y-88550000D03*
X106850000Y-91050000D03*
X107800000Y-91050000D03*
X108750000Y-91050000D03*
%TD*%
D10*
%TO.C,R3*%
X124087500Y-105100000D03*
X125912500Y-105100000D03*
%TD*%
D19*
%TO.C,C9*%
X109062500Y-51700000D03*
X107337500Y-51700000D03*
%TD*%
D10*
%TO.C,R8*%
X124175000Y-83000000D03*
X126000000Y-83000000D03*
%TD*%
D18*
%TO.C,R21*%
X105300000Y-93287500D03*
X105300000Y-95112500D03*
%TD*%
D19*
%TO.C,C3*%
X93765200Y-75057900D03*
X92040200Y-75057900D03*
%TD*%
D20*
%TO.C,D2*%
X82890200Y-80195400D03*
X84790200Y-80195400D03*
X83840200Y-77920400D03*
%TD*%
D11*
%TO.C,C16*%
X101800000Y-66825000D03*
X101800000Y-68900000D03*
%TD*%
D14*
%TO.C,R28*%
X99225000Y-114412500D03*
X99225000Y-112587500D03*
%TD*%
D21*
%TO.C,R14*%
X113655100Y-50900000D03*
X111830100Y-50900000D03*
%TD*%
D18*
%TO.C,R13*%
X105500000Y-50687500D03*
X105500000Y-52512500D03*
%TD*%
D14*
%TO.C,R27*%
X99200000Y-117837500D03*
X99200000Y-116012500D03*
%TD*%
D20*
%TO.C,D3*%
X83145200Y-95984800D03*
X85045200Y-95984800D03*
X84095200Y-93709800D03*
%TD*%
D22*
%TO.C,LED1*%
X139140000Y-77000000D03*
X139140000Y-80200000D03*
X137970000Y-77000000D03*
X137970000Y-80200000D03*
X136800000Y-77000000D03*
X136800000Y-80200000D03*
D23*
X135475000Y-77000000D03*
X135475000Y-80200000D03*
D24*
X137232000Y-78600000D03*
%TD*%
D20*
%TO.C,D4*%
X83430200Y-111647700D03*
X85330200Y-111647700D03*
X84380200Y-109372700D03*
%TD*%
D19*
%TO.C,C1*%
X93632500Y-57660200D03*
X91907500Y-57660200D03*
%TD*%
D16*
%TO.C,L3*%
X107642600Y-82800000D03*
X111757400Y-82800000D03*
%TD*%
D14*
%TO.C,R19*%
X99100000Y-73437500D03*
X99100000Y-71612500D03*
%TD*%
D12*
%TO.C,IC4*%
X108850000Y-111150000D03*
X107900000Y-111150000D03*
X106950000Y-111150000D03*
X106950000Y-113650000D03*
X107900000Y-113650000D03*
X108850000Y-113650000D03*
%TD*%
D15*
%TO.C,C27*%
X104300000Y-111337500D03*
X104300000Y-113062500D03*
%TD*%
D17*
%TO.C,U1*%
X91300000Y-59720400D03*
X91300000Y-60660200D03*
X91300000Y-61600000D03*
X93840000Y-61600000D03*
X93840000Y-59720400D03*
%TD*%
D19*
%TO.C,C14*%
X108862500Y-72500000D03*
X107137500Y-72500000D03*
%TD*%
D21*
%TO.C,R18*%
X113455100Y-71700000D03*
X111630100Y-71700000D03*
%TD*%
D11*
%TO.C,C11*%
X102000000Y-46025000D03*
X102000000Y-48100000D03*
%TD*%
D19*
%TO.C,C5*%
X93757700Y-91309800D03*
X92032700Y-91309800D03*
%TD*%
D18*
%TO.C,R17*%
X105300000Y-71487500D03*
X105300000Y-73312500D03*
%TD*%
D15*
%TO.C,C2*%
X87400000Y-59937500D03*
X87400000Y-61662500D03*
%TD*%
D13*
%TO.C,C28*%
X101637500Y-115900000D03*
X103362500Y-115900000D03*
%TD*%
D15*
%TO.C,C22*%
X104200000Y-88737500D03*
X104200000Y-90462500D03*
%TD*%
D21*
%TO.C,R22*%
X113455100Y-93500000D03*
X111630100Y-93500000D03*
%TD*%
D17*
%TO.C,U3*%
X91605200Y-93760200D03*
X91605200Y-94700000D03*
X91605200Y-95639800D03*
X94145200Y-95639800D03*
X94145200Y-93760200D03*
%TD*%
D21*
%TO.C,R26*%
X113555100Y-116100000D03*
X111730100Y-116100000D03*
%TD*%
D10*
%TO.C,R11*%
X123775000Y-55400000D03*
X125600000Y-55400000D03*
%TD*%
D20*
%TO.C,D1*%
X83150000Y-62237500D03*
X85050000Y-62237500D03*
X84100000Y-59962500D03*
%TD*%
D14*
%TO.C,R20*%
X99125000Y-70012500D03*
X99125000Y-68187500D03*
%TD*%
D17*
%TO.C,U2*%
X91470200Y-77318100D03*
X91470200Y-78257900D03*
X91470200Y-79197700D03*
X94010200Y-79197700D03*
X94010200Y-77318100D03*
%TD*%
D16*
%TO.C,L2*%
X107642600Y-61000000D03*
X111757400Y-61000000D03*
%TD*%
D11*
%TO.C,C10*%
X113200000Y-46062500D03*
X113200000Y-48137500D03*
%TD*%
D19*
%TO.C,C7*%
X94042700Y-107010200D03*
X92317700Y-107010200D03*
%TD*%
D14*
%TO.C,R24*%
X99125000Y-91812500D03*
X99125000Y-89987500D03*
%TD*%
D11*
%TO.C,C21*%
X101800000Y-88625000D03*
X101800000Y-90700000D03*
%TD*%
D19*
%TO.C,C24*%
X108962500Y-116900000D03*
X107237500Y-116900000D03*
%TD*%
D14*
%TO.C,R15*%
X99300000Y-52637500D03*
X99300000Y-50812500D03*
%TD*%
D10*
%TO.C,R10*%
X123687500Y-52900000D03*
X125512500Y-52900000D03*
%TD*%
%TO.C,R2*%
X82927700Y-75457900D03*
X84752700Y-75457900D03*
%TD*%
M02*
