%TF.GenerationSoftware,KiCad,Pcbnew,9.0.2*%
%TF.CreationDate,2025-07-22T21:11:50+02:00*%
%TF.ProjectId,rgbw_pmod,72676277-5f70-46d6-9f64-2e6b69636164,rev?*%
%TF.SameCoordinates,Original*%
%TF.FileFunction,Soldermask,Bot*%
%TF.FilePolarity,Negative*%
%FSLAX46Y46*%
G04 Gerber Fmt 4.6, Leading zero omitted, Abs format (unit mm)*
G04 Created by KiCad (PCBNEW 9.0.2) date 2025-07-22 21:11:50*
%MOMM*%
%LPD*%
G01*
G04 APERTURE LIST*
%ADD10C,3.200000*%
%ADD11R,3.000000X3.000000*%
%ADD12C,3.000000*%
%ADD13R,1.700000X1.700000*%
%ADD14O,1.700000X1.700000*%
%ADD15C,1.700000*%
%ADD16R,1.980000X3.960000*%
%ADD17O,1.980000X3.960000*%
%ADD18C,1.000000*%
G04 APERTURE END LIST*
D10*
%TO.C,H1*%
X68200000Y-121100000D03*
%TD*%
D11*
%TO.C,J8*%
X141300000Y-40900000D03*
D12*
X136300000Y-40900000D03*
X131300000Y-40900000D03*
X126300000Y-40900000D03*
%TD*%
D13*
%TO.C,J3*%
X70000000Y-72220000D03*
D14*
X70000000Y-74760000D03*
X70000000Y-77300000D03*
X70000000Y-79840000D03*
X70000000Y-82380000D03*
D15*
X70000000Y-84920000D03*
D14*
X67460000Y-72220000D03*
X67460000Y-74760000D03*
X67460000Y-77300000D03*
X67460000Y-79840000D03*
X67460000Y-82380000D03*
X67460000Y-84920000D03*
%TD*%
D10*
%TO.C,H2*%
X129900000Y-60400000D03*
%TD*%
D13*
%TO.C,J2*%
X70000000Y-95080000D03*
D14*
X70000000Y-97620000D03*
X70000000Y-100160000D03*
X70000000Y-102700000D03*
X70000000Y-105240000D03*
D15*
X70000000Y-107780000D03*
D14*
X67460000Y-95080000D03*
X67460000Y-97620000D03*
X67460000Y-100160000D03*
X67460000Y-102700000D03*
X67460000Y-105240000D03*
X67460000Y-107780000D03*
%TD*%
D11*
%TO.C,J7*%
X126300000Y-115500000D03*
D12*
X131300000Y-115500000D03*
X136300000Y-115500000D03*
X141300000Y-115500000D03*
%TD*%
D13*
%TO.C,J1*%
X70000000Y-49360000D03*
D14*
X70000000Y-51900000D03*
X70000000Y-54440000D03*
X70000000Y-56980000D03*
X70000000Y-59520000D03*
D15*
X70000000Y-62060000D03*
D14*
X67460000Y-49360000D03*
X67460000Y-51900000D03*
X67460000Y-54440000D03*
X67460000Y-56980000D03*
X67460000Y-59520000D03*
X67460000Y-62060000D03*
%TD*%
D13*
%TO.C,J4*%
X77500000Y-72525000D03*
D14*
X77500000Y-75065000D03*
X77500000Y-77605000D03*
X77500000Y-80145000D03*
X77500000Y-82685000D03*
X77500000Y-85225000D03*
X77500000Y-87765000D03*
X77500000Y-90305000D03*
%TD*%
D13*
%TO.C,J6*%
X91600000Y-41425000D03*
D14*
X91600000Y-43965000D03*
%TD*%
D16*
%TO.C,J5*%
X79235000Y-43500000D03*
D17*
X84235000Y-43500000D03*
%TD*%
D18*
%TO.C,TP4*%
X109900000Y-50600000D03*
%TD*%
%TO.C,TP16*%
X109800000Y-115800000D03*
%TD*%
%TO.C,TP12*%
X109700000Y-93200000D03*
%TD*%
%TO.C,TP8*%
X109700000Y-71400000D03*
%TD*%
G36*
X140943039Y-74719685D02*
G01*
X140988794Y-74772489D01*
X141000000Y-74824000D01*
X141000000Y-82576000D01*
X140980315Y-82643039D01*
X140927511Y-82688794D01*
X140876000Y-82700000D01*
X133524000Y-82700000D01*
X133456961Y-82680315D01*
X133411206Y-82627511D01*
X133400000Y-82576000D01*
X133400000Y-74824000D01*
X133419685Y-74756961D01*
X133472489Y-74711206D01*
X133524000Y-74700000D01*
X140876000Y-74700000D01*
X140943039Y-74719685D01*
G37*
M02*
